<?xml version="1.0" encoding="utf-8"?>
<svg id="master-artboard" viewBox="0 0 1400 980" version="1.1" xmlns="http://www.w3.org/2000/svg" x="0px" y="0px" style="enable-background:new 0 0 1400 980;" width="1400px" height="980px"><rect id="ee-background" x="0" y="0" width="1400" height="980" style="fill: rgb(255, 255, 255); fill-opacity: 0; pointer-events: none;"/><defs><style id="ee-google-fonts">@import url(https://fonts.googleapis.com/css?family=Roboto:100,100italic,300,300italic,400,400italic,500,500italic,700,700italic,900,900italic);</style><radialGradient id="gradient-0" gradientUnits="objectBoundingBox" cx="0.5" cy="0.5" r="0.5">
                <stop offset="0" style="stop-color: #00ff00"/>
                <stop offset="1" style="stop-color: #009900"/>
              </radialGradient></defs>























































































































<path d="M 260.79998779296875 86.19999694824219" style="fill: rgb(23, 168, 247); fill-opacity: 1; stroke: rgb(0, 0, 0); stroke-opacity: 1; stroke-width: 0; paint-order: fill;" transform="matrix(1, 0, 0, 1, 66.78572082519531, 1.21429443359375)"/><g transform="matrix(2.0851063728332524, 0, 0, 2.0851063728332524, -607.2871701717326, -38.85713286545845)"><title>Shape</title><desc>Created with Sketch.</desc><g id="Page-1" stroke="none" stroke-width="1" fill="none" fill-rule="evenodd">
        <g id="heart" fill="#00AA60" fill-rule="nonzero" transform="matrix(1.0000000000000002, 0, 0, 1.0000000000000002, 50.665458004492734, 48.336002349853516)">
            <path d="M 378.667 0.33299999999999996 C 321.875 0.33299999999999996 274.969 53.083 256 77.979 C 237.031 53.083 190.125 0.33299999999999996 133.333 0.33299999999999996 C 59.813 0.33299999999999996 0 67.927 0 151 C 0 196.323 17.99 238.562 49.479 267.469 C 49.937 268.261 50.5 268.99 51.156 269.646 L 248.469 466.552 C 250.552 468.625 253.271 469.667 256 469.667 C 258.729 469.667 261.458 468.625 263.542 466.542 L 467.417 262.74 L 469.521 260.698 C 471.188 259.125 472.834 257.531 474.677 255.49 C 475.448 254.73 476.083 253.875 476.573 252.948 C 499.438 224.948 512 188.833 512 151 C 512 67.927 452.188 0.33299999999999996 378.667 0.33299999999999996 Z M 244.51396374511717 103.51069073486329 C 244.2219637451172 103.85469073486328 235.21556640625 121.68953881835938 234.97656640625002 122.06453881835938 C 233.97656640625002 123.21053881835937 244.52978320312502 167.89764758300782 243.446783203125 168.9296475830078 L 255.99 443.927 L 243.95780963134766 180.6896475830078 C 243.35380963134764 179.5016475830078 249.49814428710937 127.17083721923828 248.46714428710936 126.26483721923827 C 219.95614428710937 101.36883721923829 253.11286907958984 150.67170306396486 253.11286907958984 110.23470306396484 C 253.11286907958984 38.92170306396484 173.48625378417967 103.19760913085938 235.2462537841797 103.19760913085938 C 296.30925378417965 103.19760913085938 246.51 101.313 247.031 102.115 C 250.969 108.198 261.031 108.198 264.969 102.115 C 265.49 101.313 317.604 21.667 378.667 21.667 C 440.427 21.667 258.8871538085937 24.363666809082034 258.8871538085937 95.67566680908203 C 258.8871538085937 129.27966680908204 265.0449637451172 79.11469073486327 244.51396374511717 103.51069073486329 Z" id="Shape" style="stroke: rgb(0, 0, 0); stroke-width: 5; fill: rgb(0, 255, 0); paint-order: stroke; fill-opacity: 1;" transform="matrix(1.0000000000000002, 0, 0, 1.0000000000000002, 327.28715191259175, -19.217928639045795)"/>
        </g>
    </g></g></svg>